# xmcd
#
# Track frame offsets: 
#        150
#        21755
#        41652
#        63027
#        81260
#        98485
#        112750
#        134170
#        154962
#        177107
#        193485
#        206165
#        229972
#        235105
#
# Disc length: 3392 seconds
#
# Revision: 7
# Processed by: cddbd v1.5.2PL0 Copyright (c) Steve Scherf et al.
# Submitted via: ExactAudioCopyFreeDBPlugin 1.0
#
DISCID=bd0d3e0e
DTITLE=Macy Gray - The Id
DYEAR=2001
DGENRE=Pop
TTITLE0=Relating To A Psychopath
TTITLE1=Boo
TTITLE2=Sexual Revolution
TTITLE3=Hey Young World, Part 2
TTITLE4=Sweet Baby
TTITLE5=Harry
TTITLE6=Gimme All Your Lovin Or I Will Kill You
TTITLE7=Don't Come Around
TTITLE8=My Nutmeg Phantasy
TTITLE9=Freak Like Me
TTITLE10=Oblivion
TTITLE11=Forgiveness
TTITLE12=Blowin' Up Your Speakers
TTITLE13=Shed
EXTD=YEAR: 2001
EXTT0=
EXTT1=
EXTT2=
EXTT3=
EXTT4=
EXTT5=
EXTT6=
EXTT7=
EXTT8=
EXTT9=
EXTT10=
EXTT11=
EXTT12=
EXTT13=Not sure what this one is - no label for it on the back and I h
EXTT13=aven't listened to it yet!
PLAYORDER=
